<?xml version="1.0" standalone="no"?>
<!DOCTYPE svg PUBLIC "-//W3C//DTD SVG 20010904//EN"
 "http://www.w3.org/TR/2001/REC-SVG-20010904/DTD/svg10.dtd">
<svg version="1.0" xmlns="http://www.w3.org/2000/svg"
 width="200.000000pt" height="200.000000pt" viewBox="0 0 200.000000 200.000000"
 preserveAspectRatio="xMidYMid meet">
<metadata>
Created by potrace 1.14, written by Peter Selinger 2001-2017
</metadata>
<g transform="translate(0.000000,200.000000) scale(0.100000,-0.100000)"
fill="#000000" stroke="none">
<path d="M393 1659 c-197 -33 -320 -162 -331 -350 -8 -134 40 -239 136 -300
44 -28 91 -44 371 -129 118 -36 153 -62 171 -130 24 -88 -12 -167 -95 -209
-42 -22 -63 -26 -135 -26 -105 0 -165 21 -214 75 -34 38 -66 119 -66 167 0 23
-2 23 -105 23 l-105 0 0 -47 c0 -144 93 -298 216 -361 104 -53 285 -72 407
-43 117 28 222 108 272 208 28 54 30 66 30 168 0 97 -3 116 -26 165 -32 69
-79 123 -133 155 -22 13 -113 44 -201 70 -264 77 -315 113 -315 219 0 101 69
156 194 156 90 0 141 -16 187 -60 30 -28 40 -47 50 -98 l13 -62 104 0 105 0
-6 66 c-18 234 -253 388 -524 343z"/>
<path d="M1122 1003 c-35 -351 -63 -641 -62 -645 0 -5 47 -8 104 -8 l103 0 6
48 c3 26 15 154 28 285 l23 237 257 0 c237 0 258 1 263 18 2 9 7 52 11 95 l7
77 -259 0 -258 0 14 165 14 165 293 0 c161 0 295 3 297 8 3 4 8 49 12 100 l7
92 -399 0 -399 0 -62 -637z"/>
</g>
</svg>
