<svg xmlns="http://www.w3.org/2000/svg" viewBox="0 0 1440 267.15">
  <defs>
    <style><![CDATA[
      .sprite { display: none; }
      .sprite:target { display: inline; }
    ]]></style>
  </defs>

  <g class="sprite" id="one" viewBox="0 0 1440 267.15">
    <path d="M180.48 166.22c-1.65-6.58-4.39-12.62-8.23-18.65-3.84-6.03-8.23-10.97-13.71-15.36-5.49-4.39-12.07-8.23-19.2-10.42-2.74-1.1-7.68-2.19-14.81-4.39-6.58-2.19-13.71-3.84-20.85-6.03-7.13-2.19-13.71-3.84-19.2-6.03-6.03-1.65-9.33-2.74-9.87-3.29-8.23-2.74-14.26-6.58-19.2-11.52-4.94-4.94-7.68-12.07-7.68-21.39 0-6.58 1.1-11.52 3.84-15.91 2.74-4.39 6.03-7.68 9.87-9.87 3.84-2.74 8.23-4.39 13.17-5.49 4.94-1.1 9.33-1.65 14.26-1.65 13.71 0 25.23 3.29 34.56 9.87 8.78 6.58 13.71 18.1 14.81 35.11h40.05c0-13.17-2.19-24.69-7.13-35.66-4.39-9.87-10.97-18.65-18.65-25.23-7.68-7.13-17.01-12.07-27.43-15.36S103.13 0 91.06 0c-9.87 0-20.3 1.65-30.17 4.39S42.24 12.07 34.56 18.1c-7.68 6.03-14.26 13.71-18.65 23.04-4.94 9.33-7.13 20.85-7.13 34.01 0 6.58.55 13.17 2.19 19.75 1.65 6.58 4.39 12.62 8.23 18.1 3.84 5.49 8.78 10.97 15.36 15.36 6.58 4.39 14.26 8.23 24.14 10.97 15.36 4.94 28.53 8.78 40.05 11.52 10.42 2.74 19.75 6.03 27.98 9.33 4.39 1.65 8.78 4.94 12.62 9.87 3.84 4.39 6.03 11.52 6.03 21.39 0 4.94-1.1 9.33-2.74 14.26-1.65 4.39-4.39 8.78-8.23 12.07-3.84 3.29-8.78 6.58-14.81 8.78-6.03 2.19-13.71 3.29-21.94 3.29s-15.36-1.1-22.49-2.74c-6.58-2.19-13.17-4.94-18.1-9.33-5.49-4.39-9.33-9.87-12.07-17.01-2.74-7.13-4.39-15.36-4.39-24.69H0c0 15.36 2.74 29.07 7.68 41.14 4.94 11.52 12.07 20.85 20.3 27.98s18.1 12.62 29.62 16.46c11.52 3.29 23.59 5.49 36.75 5.49 10.97 0 21.94-1.65 33.46-4.39 10.97-2.74 20.3-7.68 28.53-14.26s15.36-14.81 20.3-24.69c4.94-9.87 7.68-21.94 7.68-36.75-1.1-7.67-1.65-14.25-3.84-20.83zM238.08 192.55h90.51l21.39 67.47h42.79L305.55 4.39h-42.79l-86.67 255.63h41.14l20.85-67.47zm45.53-143.73h1.1l34.56 109.71H249.6l34.01-109.71zM435.57 71.86h.55l104.23 188.16h42.24V4.39h-38.4v188.16h-.55L439.41 4.39h-42.24v255.63h38.4V71.86zM785.01 185.97c0-6.58-1.1-13.17-2.74-19.75-1.65-6.58-4.39-12.62-8.23-18.65-3.84-6.03-8.23-10.97-13.71-15.36-5.49-4.39-12.07-8.23-19.2-10.42-2.74-1.1-7.68-2.19-14.81-4.39-6.58-2.19-13.71-3.84-20.85-6.03-7.13-2.19-13.71-3.84-19.2-6.03-6.03-1.65-9.33-2.74-9.87-3.29-8.23-2.74-14.26-6.58-19.2-11.52-4.94-4.94-7.68-12.07-7.68-21.39 0-6.58 1.1-11.52 3.84-15.91 2.74-4.39 6.03-7.68 9.87-9.87 3.84-2.74 8.23-4.39 13.17-5.49 4.94-1.1 9.33-1.65 14.26-1.65 13.71 0 25.23 3.29 34.56 9.87 8.78 6.58 13.71 18.1 14.81 35.11h40.05c0-13.17-2.19-24.69-7.13-35.66-4.39-9.87-10.97-18.65-18.65-25.23-7.68-7.13-17.01-12.07-27.43-15.36C716.43 1.65 705.46 0 692.85 0c-9.87 0-20.3 1.65-30.17 4.39-9.87 2.74-18.65 7.68-26.33 13.71-7.68 6.03-14.26 13.71-18.65 23.04-4.94 9.33-7.13 20.3-7.13 34.01 0 6.58.55 13.17 2.19 19.75 1.65 6.58 4.39 12.62 8.23 18.1 3.84 5.49 8.78 10.97 15.36 15.36 6.58 4.39 14.26 8.23 24.14 10.97 15.36 4.94 28.53 8.78 40.05 11.52 10.42 2.74 19.75 6.03 27.98 9.33 4.39 1.65 8.78 4.94 12.62 9.87 3.84 4.39 6.03 11.52 6.03 21.39 0 4.94-1.1 9.33-2.74 14.26-1.65 4.94-4.39 8.78-8.23 12.07-3.84 3.29-8.78 6.58-14.81 8.78-6.03 2.19-13.71 3.29-21.94 3.29s-15.36-1.1-22.49-2.74c-6.58-2.19-13.17-4.94-18.1-9.33-5.49-4.39-9.33-9.87-12.07-17.01-2.74-7.13-4.39-15.36-4.39-24.69h-40.05c0 15.36 2.74 29.07 7.68 41.14 4.94 11.52 12.07 20.85 20.3 27.98s18.1 12.62 29.62 16.46c11.52 3.84 23.59 5.49 36.75 5.49 10.97 0 21.94-1.65 33.46-4.39 10.97-2.74 20.3-7.68 28.53-14.26s15.36-14.81 20.3-24.69c3.27-10.95 6.02-23.57 6.02-37.83zM969.87 221.62H843.7v-74.61h114.65v-36.75H843.7V43.34h123.98V4.39H803.66v255.63h166.22v-38.4zM1130.61 192c1.1 8.23 1.65 18.65 1.65 30.17 0 6.03 0 12.62.55 19.2s2.19 12.62 5.49 18.1h42.79c-4.39-4.94-7.13-13.71-9.33-26.33-2.19-12.07-2.74-25.78-2.74-41.14 0-9.87-1.1-18.1-3.29-24.69-2.19-6.58-4.94-12.07-8.23-15.91-3.29-4.39-7.13-7.13-10.97-9.33-3.84-1.65-7.68-3.29-10.97-3.29v-.55c1.65-.55 4.94-2.19 8.78-4.39 3.84-2.19 8.23-5.49 12.62-10.42 4.39-4.94 7.68-10.97 10.97-19.2 3.29-7.68 4.94-18.1 4.94-30.17 0-21.39-6.03-38.95-18.65-51.02-12.62-12.07-31.27-18.1-56.5-18.1H989.07v255.63h40.05V155.25h58.7c9.33 0 16.46 1.1 22.49 3.84s10.42 6.58 13.71 12.07c3.29 5.48 5.49 12.61 6.59 20.84zm-36.76-71.31h-65.28V41.14h64.73c4.94 0 9.87.55 14.81 1.65 4.94 1.1 8.78 2.74 12.62 5.49 3.84 2.74 6.58 6.58 8.78 12.07 2.19 4.94 3.29 11.52 3.29 19.75 0 13.71-3.29 23.59-9.87 30.17-7.14 7.12-16.46 10.42-29.08 10.42zM1237.03 4.39h-40.05v255.63h40.05V4.39zM1318.77 43.34h117.39l3.84-38.4h-156.89l-25.23 254.54h40.05l10.97-113.01h103.13l3.84-36.21h-103.13l6.03-66.92z"/>
  </g>

  <g class="sprite" id="two" viewBox="0 0 1440 267.15">
    <path d="M.38 224.75h52.21c14.53 0 18.38-11.03 9.49-27.99L8.09 92.44C-11.78 54.28 7.21 0 40.42 0h128.74l-5.93 42.4h-42.72c-14.23 0-18.09 11.03-9.78 28l56.95 108.98c18.69 36.46.59 87.78-30.85 87.78H.38v-42.41zM391.6 76.33v190.82h-88.98V135.7h-35.6v131.46h-88.98V76.33C178.04 15.26 188.72 0 231.43 0h106.78c42.71 0 53.39 15.26 53.39 76.33zm-88.98 16.96V76.33c0-27.14-3.56-33.93-17.8-33.93s-17.8 6.79-17.8 33.93v16.96h35.6zM611.07 76.33v190.82h-88.98V76.33c0-27.14-4.75-33.93-23.74-33.93h-11.86v224.76H397.5V0h160.18c42.7 0 53.39 15.26 53.39 76.33zM617.26 224.75h52.21c14.53 0 18.38-11.03 9.49-27.99L624.98 92.44C605.1 54.28 624.09 0 657.3 0h128.74l-5.93 42.4H737.4c-14.24 0-18.1 11.03-9.79 28l56.95 108.98c18.69 36.46.59 87.78-30.85 87.78H617.26v-42.41zM910.59 42.4c-18.98 0-23.73 6.79-23.73 33.93v16.96h53.39v42.41h-53.39v55.13c0 27.14 4.74 33.92 23.73 33.92h47.46v42.41H851.27c-42.71 0-53.39-15.27-53.39-76.33V76.33C797.88 15.26 808.56 0 851.27 0h106.78v42.4h-47.46zM1148.75 171.74l30.26 95.42h-88.98l-28.18-89.06h-8.9v89.06h-88.98V0h140.9c59.33 0 74.15 17.81 74.15 89.05-.01 48.76-6.82 72.51-30.27 82.69zm-95.8-129.34v93.3h11.86c18.98 0 23.74-9.33 23.74-46.65s-4.75-46.65-23.74-46.65h-11.86zM1184.92 267.15V0h88.98v267.15h-88.98zM1392.54 42.4c-18.98 0-23.73 6.79-23.73 33.93v16.96h53.39v42.41h-53.39v131.46h-88.98V76.33c0-61.07 10.68-76.33 53.39-76.33H1440v42.4h-47.46z"/>
  </g>

  <g class="sprite" id="three" viewBox="0 0 1440 267.15">
    <path d="M74.09 267.15c30.64 0 56.06-6.2 76.27-18.62 20.2-12.41 33.65-32.23 40.35-59.47 1.95-7.95 2.94-15.18 2.97-21.69.03-6.5-1.32-12.47-4.05-17.89-2.73-5.42-6.92-10.48-12.57-15.18-5.66-4.7-13.32-9.22-22.99-13.56l-39.34-17.35c-10.92-4.57-17.55-9.58-19.88-15-2.34-5.42-2.52-12.11-.57-20.06a53.83 53.83 0 014.13-11.21c1.8-3.62 4.29-6.81 7.46-9.58 3.17-2.77 7.05-5 11.66-6.69 4.6-1.68 10.05-2.53 16.34-2.53 11 0 18.04 3.32 21.13 9.94 3.08 6.63 3.12 16.09.1 28.38h54.21l1.78-7.23c3.02-12.29 3.45-22.83 1.29-31.63s-6.41-16.03-12.74-21.69c-6.34-5.66-14.49-9.76-24.48-12.29C165.18 1.27 153.9 0 141.33 0 114.35 0 91.6 6.27 73.07 18.8 54.53 31.33 42.13 50.37 35.85 75.92c-2.61 10.61-3.47 19.95-2.56 28.02.89 8.08 3.66 15.18 8.31 21.33 4.64 6.14 10.98 11.51 19.03 16.09 8.04 4.58 17.87 8.8 29.5 12.65 8.72 2.89 15.94 5.73 21.68 8.5 5.73 2.77 10.15 5.84 13.25 9.22 3.1 3.37 4.98 7.17 5.65 11.39.66 4.22.29 9.22-1.13 15.01-2.67 10.84-8.11 18.86-16.32 24.04-8.22 5.19-16.64 7.77-25.29 7.77-7.33 0-13.19-.96-17.56-2.89-4.38-1.93-7.59-4.58-9.64-7.95-2.05-3.37-3-7.53-2.83-12.47.16-4.94.99-10.42 2.47-16.45l1.87-7.59H5.71l-2.58 10.48c-5.86 23.86-3.49 42.18 7.12 54.95 10.61 12.76 31.89 19.13 63.84 19.13zM220.42 263.18l26.38-54.59h74.64l-.45 54.59h58.93L369.11 5.06h-69.93L161.49 263.18h58.93zM322.74 49.89h.78l-1.42 116.04h-55l55.64-116.04zM476.2 82.42h.79l24.71 180.76h64.43L629.57 5.06h-51.86l-43.45 176.78h-.78L508.57 5.06h-65.21l-63.44 258.12h51.85zM622.16 103.93c.89 8.08 3.67 15.18 8.31 21.33 4.64 6.14 10.98 11.51 19.02 16.09s17.88 8.8 29.5 12.65c8.71 2.89 15.93 5.73 21.68 8.5 5.73 2.77 10.15 5.84 13.25 9.22 3.09 3.37 4.98 7.17 5.64 11.39.66 4.22.29 9.22-1.13 15.01-2.67 10.84-8.11 18.86-16.32 24.04-8.21 5.19-16.64 7.77-25.28 7.77-7.33 0-13.19-.96-17.56-2.89-4.38-1.93-7.59-4.58-9.64-7.95s-2.99-7.53-2.82-12.47c.16-4.94.99-10.42 2.47-16.45l1.87-7.59h-56.57L592 193.06c-5.86 23.86-3.49 42.18 7.12 54.95 10.61 12.78 31.89 19.16 63.84 19.16 30.64 0 56.06-6.2 76.27-18.62 20.2-12.41 33.65-32.23 40.35-59.47 1.95-7.95 2.94-15.18 2.97-21.69.03-6.5-1.32-12.47-4.04-17.89-2.73-5.42-6.92-10.48-12.57-15.18-5.66-4.7-13.32-9.22-22.99-13.56l-39.35-17.35c-10.92-4.57-17.55-9.58-19.88-15-2.34-5.42-2.53-12.11-.57-20.06a53.83 53.83 0 014.13-11.21c1.8-3.62 4.28-6.81 7.46-9.58 3.16-2.77 7.05-5 11.66-6.69 4.6-1.68 10.05-2.53 16.34-2.53 11 0 18.04 3.32 21.12 9.94 3.08 6.63 3.12 16.09.1 28.38h54.21l1.78-7.23c3.02-12.29 3.45-22.83 1.3-31.63-2.16-8.8-6.42-16.03-12.74-21.69-6.34-5.66-14.5-9.76-24.48-12.29C754.05 1.27 742.77 0 730.2 0c-26.97 0-49.73 6.27-68.26 18.8C643.4 31.33 631 50.37 624.73 75.92c-2.61 10.61-3.47 19.94-2.57 28.01zM923.93 263.18l10.49-42.66h-97.35l17.06-69.41h87.52l10.49-42.66h-87.53l14.93-60.73h93.42l10.49-42.66h-150l-63.44 258.12zM995.89 263.18L1022.73 154h30.25c11.78 0 19.46 2.89 23.01 8.68 3.55 5.78 4.34 13.74 2.38 23.86l-10.6 49.53c-.99 5.06-1.66 9.95-2.02 14.64-.37 4.7.43 8.86 2.43 12.47h61.29l.53-2.17c-4.6-2.65-6.77-7.59-6.57-14.82.73-7.23 2.52-17.72 5.38-31.45 1.45-6.99 2.74-13.31 3.88-18.98 1.13-5.66 2.02-10.9 2.69-15.73 1.99-14.46.49-24.95-4.45-31.45-4.95-6.51-14.25-10.73-27.92-12.66l.18-.72c16.74-3.13 30.26-10.18 40.55-21.15 10.29-10.96 17.57-25.12 21.83-42.48 5.51-22.41 3.06-39.1-7.34-50.07-10.4-10.96-27.38-16.45-50.96-16.45h-104.5l-63.44 258.12h56.56zm54.03-219.8h26.71c26.18 0 36.35 11.93 30.48 35.79-3.44 13.98-9.55 23.92-18.33 29.83-8.79 5.91-19.99 8.86-33.6 8.86h-23.57l18.31-74.48zM1204.3 5.06l-63.45 258.12h56.57l63.45-258.12zM1276.38 263.18l27.55-112.07h94.28l10.49-42.66h-94.29l14.93-60.73h100.18L1440 5.06h-156.75l-63.44 258.12z"/>
  </g>

  <g class="sprite" id="four" viewBox="0 0 1440 267.15">
    <path d="M114.19 191.21c16.88 28.23 5.02 75.94-18.7 75.94H.17v-9.54h74.8c15.5 0 23.26-30.53 12.31-48.85L7.93 75.94C-8.95 47.7 2.91 0 26.62 0h95.32v9.54H47.15c-15.51 0-23.26 30.53-12.32 48.85l79.36 132.82zM322.36 0c14.82 0 26.22 18.7 26.22 43.89v223.26h-26.22V34.73c0-33.97-31.92-33.97-31.92 0 0 21.76-4.56 48.85-15.05 66.02l-101.93 166.4h-37.63L290.43 9.54h-154.6V0h186.53zM558.34 0h26.68v222.5c0 24.81-11.86 44.65-26.68 44.65h-14.59c-5.93 0-11.86-4.2-16.19-11.45L432.01 95.4c-9.8-16.03-14.14-38.54-14.14-61.44 0-33.97-29.19-33.97-29.19 0v233.19h-26.45V44.65c0-24.8 11.86-44.65 26.45-44.65h14.59c6.16 0 12.09 4.19 16.19 11.45l95.77 160.3c9.58 16.03 14.14 38.55 14.14 61.44 0 33.97 28.96 33.97 28.96 0V0zM712.9 191.21c16.88 28.23 5.02 75.94-18.7 75.94h-95.32v-9.54h74.8c15.5 0 23.26-30.53 12.31-48.85L606.64 75.94C589.77 47.7 601.63 0 625.34 0h95.32v9.54h-74.79c-15.51 0-23.26 30.53-12.32 48.85l79.35 132.82zM849.48 9.54c-7.3 0-13.91 4.19-18.47 12.21l-38.99 68.31h129.52v9.54H760.32v127.1c0 18.7 7.53 30.91 16.65 30.91H947.3v9.54H760.32c-14.59 0-25.77-21.75-25.77-46.56V0h25.77v90.07h16.65c7.52 0 15.05-12.22 15.05-24.81C792.02 30.15 802.05 0 819.84 0H947.3v9.54h-97.82zM1173.25 132.05c0 25.19-11.4 46.94-26.45 46.94h-26.22l52.67 88.16h-37.63l-99.65-169.84c-11.17-15.65-16.88-40.83-16.88-62.58 0-33.97-31.92-33.97-31.92 0v232.42h-26.22V43.89C960.95 18.7 972.12 0 987.17 0h159.62c15.05 0 26.45 18.7 26.45 43.89v88.16zm-26.45-94.27c0-15.65-7.53-28.24-16.88-28.24H1019.1l90.3 150.75c3.65 6.11 7.53 9.54 13 9.54h7.52c9.35 0 16.88-12.59 16.88-28.23V37.78zM1186.9 0h26.68v9.54h-26.68V0zm0 267.15V17.94h26.68v249.22h-26.68zM1345.37 9.54c-7.3 0-13 3.05-18.7 12.59l-39.45 66.03h126.55v9.54H1255.3v169.45h-28.05V0h28.05v88.16h17.1c7.29 0 14.82-9.54 14.82-22.14 0-39.31 8.21-66.03 28.28-66.03H1440v9.54h-94.63z"/>
  </g>

  <g class="sprite" id="five" viewBox="0 0 1440 267.15">
    <path d="M39.92 174.02c0 27.46 13.3 40.07 63.87 40.07 41.92 0 54.55-7.79 54.55-28.2 0-21.52-8.87-25.23-59.21-29.31-67.64-5.19-94.48-23.01-94.48-81.26C4.65 18.18 39.47 0 97.58 0c58.55 0 94.03 24.49 94.03 88.68h-39.92c0-28.57-17.08-35.62-58.55-35.62-39.25 0-48.57 6.31-48.57 25.6 0 20.04 9.32 23.75 54.56 28.2 61.21 5.56 99.13 11.13 99.13 76.8 0 69.39-39.25 83.49-96.69 83.49C37.92 267.15 0 248.97 0 174.02h39.92zM349.26 208.16h-92.92l-16.63 55.28H195.8L275.85 3.71h53.89l80.28 259.73h-44.13l-16.63-55.28zm-14.87-49.72L302.9 53.06l-31.71 105.38h63.2zM619.57 3.71v259.73h-54.33L459.45 68.64v194.8h-39.92V3.71h54.11l106.01 195.17V3.71h39.92zM672.54 174.02c0 27.46 13.3 40.07 63.87 40.07 41.92 0 54.55-7.79 54.55-28.2 0-21.52-8.87-25.23-59.21-29.31-67.64-5.19-94.48-23.01-94.48-81.26C637.28 18.18 672.09 0 730.2 0c58.55 0 94.03 24.49 94.03 88.68h-39.92c0-28.57-17.08-35.62-58.55-35.62-39.25 0-48.57 6.31-48.57 25.6 0 20.04 9.32 23.75 54.56 28.2 61.21 5.56 99.13 11.13 99.13 76.8 0 69.39-39.25 83.49-96.69 83.49-63.65 0-101.57-18.18-101.57-93.14h39.92zM885.18 56.77v52.69h124.19v48.23H885.18v52.69h124.19v53.06H845.26V3.71h164.11v53.06H885.18zM1171.47 186.27l28.61 77.17h-47.01l-25.06-69.38h-64.32v69.38h-39.92V3.71h121.97c35.27 0 59.43 37.47 59.43 95.36.01 42.3-12.85 73.47-33.7 87.2zm-107.78-48.24h70.97c11.98 0 30.61 0 30.61-38.96 0-39.33-18.63-39.33-30.61-39.33h-70.97v78.29zM1258.15 263.44h-39.92V3.71h39.92v259.73zM1315.81 59.74v66.05h110.89v56.4h-110.89v81.26h-39.92V3.71H1440v56.02h-124.19z"/>
  </g>

  <g class="sprite" id="six" viewBox="0 0 1440 267.15">
    <path d="M1186.96 6.77l-21.38 65.35c6.74-38.44-6.68-65.35-58.36-65.35H830.97l-54.82 167.55c14.21-44.25 10.68-73.83-61.74-80.53-7.39-.68-5.62-6.1-4.51-9.48 1.22-3.73 3.9-9.14 9.15-9.14 5.98 0 4.41 8.13 2.3 16.25h76.68C812.89 42.66 807.45 0 743.1 0c-68.16 0-101.27 44.7-115.12 87.02-14.62 44.7-14.62 75.17 52.59 81.94 11.09 1.01 12.91 5.42 10.92 11.51-1.55 4.74-5.07 10.5-9.78 10.5-6.16 0-6.49-6.77-3.04-18.96h-79.93L652.8 6.77h-74.5l-30.13 92.1-1.48 5.08-.26-4.74-9.82-92.44h-84.47L372.9 248.95 406.65 6.77H271.97l-94.58 186.52c2.44-5.56 4.67-11.4 6.69-17.56 14.73-45.03 11.9-75.17-61.29-81.94-7.39-.68-5.62-6.1-4.51-9.48 1.22-3.73 3.9-9.14 9.15-9.14 5.98 0 4.41 8.13 2.3 16.25h76.68C221.27 42.66 215.83 0 151.48 0 83.32 0 50.21 44.7 36.36 87.02c-14.62 44.7-14.62 75.17 52.59 81.94 11.09 1.01 12.91 5.42 10.92 11.51-1.55 4.74-5.07 10.5-9.78 10.5-6.16 0-6.49-6.77-3.04-18.96H7.1c-17.31 51.81-4.66 95.15 56.79 95.15 48.58 0 83.12-19.79 105.12-57.34l-24.78 48.87h95.71l14.56-34.54h29l-7.85 34.54h168.56l30.13-92.1 1.48-5.08.26 4.74 10 92.44h84.29l27.83-85.07c-16.51 51.09-3.51 93.54 57.3 93.54 61.33 0 100.3-31.53 119.89-90.57l-26.86 82.1h153.3l27.14-82.96H866.5l5.43-16.59h60.36l17.73-54.18h-60.36l4.99-15.24h72.5l-55.28 168.96h90.82l17.39-53.16h1.27c7.25 0 6.95 8.13 4.06 18.62l-1.04 3.73c-3.33 11.85-6.05 24.04-6.45 30.81h177.45l82.42-251.92h-90.83zM315.14 87.02l-15.04 65.35h-15.41l27.36-65.35 5.19-12.53h1.09l-3.19 12.53zm750.25 25.4c-3.54 10.83-9.2 17.61-15.55 17.61h-5.08l11.52-35.21h5.08c5.99-.01 7.8 6.08 4.03 17.6zm41.71 53.15l.11-.34c18.02-7.97 32.66-25.13 43.38-47.3l-43.33 132.42c1.57-9.71 3.27-17.97 4.96-26.21l.9-4.4c6.49-31.48 7.15-44.01-6.02-54.17zM1345.4 94.81h65.8L1440 6.77h-153.12l-82.43 251.92h87.33l24.26-74.15h56.01l22.16-67.72h-56.02z"/>
  </g>
</svg>